<?xml version="1.0" encoding="UTF-8"?>
<!DOCTYPE svg PUBLIC "-//W3C//DTD SVG 1.1//EN" "http://www.w3.org/Graphics/SVG/1.1/DTD/svg11.dtd">
<!-- Creator: CorelDRAW 2017 -->
<svg xmlns="http://www.w3.org/2000/svg" xml:space="preserve" width="164px" height="132px" version="1.1" style="shape-rendering:geometricPrecision; text-rendering:geometricPrecision; image-rendering:optimizeQuality; fill-rule:evenodd; clip-rule:evenodd"
viewBox="0 0 164 132"
 xmlns:xlink="http://www.w3.org/1999/xlink">
 <defs>
  <style type="text/css">
   <![CDATA[
    .fil5 {fill:#3A0805}
    .fil0 {fill:#3B0906}
    .fil2 {fill:#3B0B07}
    .fil6 {fill:#8E7572}
    .fil7 {fill:#A37143}
    .fil3 {fill:#A97647}
    .fil4 {fill:#FEFEFC}
    .fil1 {fill:#FEFEFE}
   ]]>
  </style>
 </defs>
 <g id="Capa_x0020_1">
  <metadata id="CorelCorpID_0Corel-Layer"/>
  <g id="_1849529316752">
   <path class="fil0" d="M54.842 43.822c1.892,4.639 1.453,21.934 19.561,27.707 14.363,4.579 24.864,-2.16 32.708,-12.769 -4.158,28.336 -59.552,26.671 -52.269,-14.938zm51.865 8.584c1.544,-1.818 -0.238,-3.772 3.722,-0.911 -1.446,2.63 -0.678,3.265 -3.722,0.911zm-38.842 -24.722l8.373 3.489 -2.567 2.998c6.938,11.146 5.659,16.461 16.254,9.809 5.949,-3.736 1.17,-1.592 2.464,-5.649l8.583 1.614 -2.985 7.281c-0.205,-0.029 -0.46,-0.222 -0.561,-0.264 -2.096,-0.879 -2.269,-1.226 -4.209,-0.669 -0.232,0.067 -4.874,2.59 -5.223,2.847 -3.567,2.623 -4.226,7.95 -9.686,4.361 -1.797,-3.3 -0.176,-2.682 -1.489,-6.41 -0.498,-1.412 -2.085,-3.624 -2.916,-5.084 -4.297,-7.552 -1.552,-4.539 -7.169,-6.366l1.131 -7.957zm5.764 -9.39c-44.287,11.857 -26.937,75.303 15.905,65.354 42.683,-9.911 26.628,-76.741 -15.905,-65.354z"/>
   <path class="fil1" d="M73.629 18.294c42.533,-11.387 58.588,55.443 15.905,65.354 -42.842,9.949 -60.192,-53.497 -15.905,-65.354zm68.614 57.196c4.956,-8.437 -4.938,-9.187 -11.277,-11.527 -12.817,-4.732 -8.186,-1.193 -8.158,-13.429 0.097,-42.738 -60.915,-57.954 -79.358,-15.917 -11.187,25.5 6.034,54.147 33.394,57.353 11.98,1.404 27.106,-3.677 35.068,-12.898 5.832,-6.755 3.241,-11.16 12.467,-7.64 5.022,1.916 12.855,6.281 17.864,4.058z"/>
   <path class="fil2" d="M142.243 75.49c-5.009,2.223 -12.842,-2.142 -17.864,-4.058 -9.226,-3.52 -6.635,0.885 -12.467,7.64 -7.962,9.221 -23.088,14.302 -35.068,12.898 -27.36,-3.206 -44.581,-31.853 -33.394,-57.353 18.443,-42.037 79.455,-26.821 79.358,15.917 -0.028,12.236 -4.659,8.697 8.158,13.429 6.339,2.34 16.233,3.09 11.277,11.527zm-68.866 -67.955c-28.611,6.019 -45.244,34.417 -32.676,61.676 12.261,26.592 44.897,34.861 68.257,16.906 2.739,-2.104 10.496,-11.888 12.182,-11.991 3.684,-0.224 12.773,6.565 19.943,5.256 7.873,-1.438 8.379,-11.035 1.27,-14.835 -4.038,-2.158 -16.189,-3.595 -16.427,-8.436 -0.757,-15.388 0.533,-23.063 -13.783,-37.341 -10.592,-10.564 -24.2,-14.3 -38.766,-11.235z"/>
   <path class="fil3" d="M54.842 43.822c-7.283,41.609 48.111,43.274 52.269,14.938 -7.844,10.609 -18.345,17.348 -32.708,12.769 -18.108,-5.773 -17.669,-23.068 -19.561,-27.707z"/>
   <path class="fil4" d="M66.734 35.641c5.617,1.827 2.872,-1.186 7.169,6.366 0.831,1.46 2.418,3.672 2.916,5.084 1.313,3.728 -0.308,3.11 1.489,6.41 5.46,3.589 6.119,-1.738 9.686,-4.361 0.349,-0.257 4.991,-2.78 5.223,-2.847 1.94,-0.557 2.113,-0.21 4.209,0.669 0.101,0.042 0.356,0.235 0.561,0.264l2.985 -7.281 -8.583 -1.614c-1.294,4.057 3.485,1.913 -2.464,5.649 -10.595,6.652 -9.316,1.337 -16.254,-9.809l2.567 -2.998 -8.373 -3.489 -1.131 7.957z"/>
   <path class="fil5" d="M147.292 119.623c-1.461,-2.648 -1.461,-4.524 0,-7.172 2.465,0.743 2.757,-0.233 3.164,3.194 0.514,4.335 -1.756,3.355 -3.164,3.978zm-6.928 8.914l6.014 0c-0.005,-5.417 -1.06,-3.716 2,-5 6.813,-0.006 9.703,-3.849 7.689,-10.604 -1.828,-6.129 -10.576,-4.7 -15.518,-4.139l-0.185 19.743z"/>
   <path class="fil0" d="M129.292 119.623c-1.461,-2.648 -1.461,-4.524 0,-7.172 2.465,0.743 2.757,-0.233 3.163,3.194 0.515,4.335 -1.755,3.355 -3.163,3.978zm-6.928 8.914l6.014 0c-0.006,-5.417 -1.061,-3.716 2,-5 6.813,-0.006 9.702,-3.849 7.688,-10.604 -1.827,-6.129 -10.576,-4.7 -15.517,-4.139l-0.185 19.743z"/>
   <path class="fil5" d="M111.12 116.622c1.717,4.388 1.522,1.639 0.257,4.086 -1.018,-1.872 -1.924,-1.155 -0.257,-4.086zm-9.565 11.73c10.433,0.989 3.028,-2.086 9.822,-2.815 8.162,0.899 -3.029,3.544 8.871,2.87 -0.118,-3.968 -4.897,-16.816 -6.784,-19.957l-4.98 0.127 -6.929 19.775z"/>
   <path class="fil2" d="M69.377 128.537l14 0c-0.172,-8.974 -3.368,-2.671 -9.172,-6 3.952,-2.267 3.384,0.223 7.258,-1.914l-0.043 -3.172c-5.162,-2.872 -4.971,1.837 -7.129,-3 4.07,-2.246 5.101,0.417 9.172,-1.829 -0.634,-5.29 0.221,-4.085 -14.086,-4.085l0 20z"/>
   <path class="fil2" d="M98.377 124.618c-4.334,-0.013 -6.12,1.223 -7.985,-2.081 1.835,-3.219 2.694,-2.084 6.985,-2.079l1.239 -2.97c-5.358,-2.909 -5.167,1.8 -7.325,-3.037 3.956,-2.182 4.217,0.354 8.172,-1.829 -0.529,-4.417 -0.211,-3.99 -4.988,-4.24 -2.77,-0.144 -5.96,-0.016 -8.441,0.812 -1.851,5.546 -0.657,13.328 -0.657,19.343l13.829 -0.022c0.342,-4.654 0.378,-2.099 -0.829,-3.897z"/>
   <path class="fil0" d="M27.462 113.451c3.377,2.767 2.866,8.398 -0.743,10.915 -3.431,-3.422 -3.914,-9.023 0.743,-10.915zm-2.086 -3.914c-6.215,1.857 -6.439,3.676 -6.103,11.018 0.286,6.261 3.178,9.209 9.876,7.87 8.555,-1.71 7.703,-22.319 -3.773,-18.888z"/>
   <path class="fil0" d="M53.379 128.407l4.085 0.194c1.5,-2.699 0.839,-3.339 1.042,-6.934 3.596,-0.203 4.236,0.458 6.957,-1.044l-0.054 -3.173c-4.589,-2.574 -5.063,1.795 -7.097,-3.021 3.845,-2.1 4.286,0.327 8.151,-1.806l-0.145 -3.959 -12.833 -0.124 -0.106 19.867z"/>
   <path class="fil0" d="M37.379 128.407l4.084 0.194c1.501,-2.699 0.84,-3.339 1.043,-6.934 3.596,-0.203 4.235,0.458 6.957,-1.044l-0.054 -3.173c-4.589,-2.574 -5.064,1.795 -7.098,-3.021 3.846,-2.1 4.287,0.327 8.152,-1.806l-0.145 -3.959 -12.833 -0.124 -0.106 19.867z"/>
   <path class="fil0" d="M3.614 125.299c4.642,4.494 13.38,5.473 13.632,-2.632 -7.066,-0.384 -4.208,2.315 -8.173,1.173 -1.095,-2.996 -1.095,-6.611 0,-9.606 5.494,-1.905 0.098,1.964 9.281,1.065 -1.365,-2.344 -3.903,-8.988 -11.041,-5.919 -5.513,2.371 -4.33,10.012 -3.699,15.919z"/>
   <path class="fil6" d="M98.377 124.618c-3.743,-2.575 -2.99,0.318 -7.171,-2.081 3.958,-2.271 2.61,0.365 6.171,-2.079 -4.291,-0.005 -5.15,-1.14 -6.985,2.079 1.865,3.304 3.651,2.068 7.985,2.081z"/>
   <path class="fil7" d="M106.707 52.406c3.044,2.354 2.276,1.719 3.722,-0.911 -3.96,-2.861 -2.178,-0.907 -3.722,0.911z"/>
  </g>
 </g>
</svg>
